<?xml version="1.0" encoding="UTF-8" standalone="no"?>
<!-- Created with Inkscape (http://www.inkscape.org/) -->

<svg
   xmlns:dc="http://purl.org/dc/elements/1.1/"
   xmlns:cc="http://creativecommons.org/ns#"
   xmlns:rdf="http://www.w3.org/1999/02/22-rdf-syntax-ns#"
   xmlns:svg="http://www.w3.org/2000/svg"
   xmlns="http://www.w3.org/2000/svg"
   xmlns:xlink="http://www.w3.org/1999/xlink"
   xmlns:sodipodi="http://sodipodi.sourceforge.net/DTD/sodipodi-0.dtd"
   xmlns:inkscape="http://www.inkscape.org/namespaces/inkscape"
   id="svg2"
   version="1.1"
   inkscape:version="0.92.3 (2405546, 2018-03-11)"
   xml:space="preserve"
   width="2581.7637"
   height="2598.4504"
   viewBox="0 0 2581.764 2598.4504"
   sodipodi:docname="xenius.svg"
   inkscape:export-filename="/home/eric/data/WORK/PROJECT/TOOL/XENIUS/LOGO/xenius.png"
   inkscape:export-xdpi="90"
   inkscape:export-ydpi="90"
   style="enable-background:new"><metadata
     id="metadata8"><rdf:RDF><cc:Work
         rdf:about=""><dc:format>image/svg+xml</dc:format><dc:type
           rdf:resource="http://purl.org/dc/dcmitype/StillImage" /><dc:title></dc:title></cc:Work></rdf:RDF></metadata><defs
     id="defs6"><linearGradient
   inkscape:collect="always"
   id="linearGradient922"><stop
     style="stop-color:#0067bd;stop-opacity:1"
     offset="0"
     id="stop918" /><stop
     style="stop-color:#10a4e7;stop-opacity:1"
     offset="1"
     id="stop920" /></linearGradient><inkscape:perspective
   sodipodi:type="inkscape:persp3d"
   inkscape:vp_x="-618.06795 : -957.87267 : 1"
   inkscape:vp_y="0 : 1405.882 : 0"
   inkscape:vp_z="3276.7102 : -957.87267 : 1"
   inkscape:persp3d-origin="1329.3211 : -1657.5445 : 1"
   id="perspective890" /><inkscape:perspective
   sodipodi:type="inkscape:persp3d"
   inkscape:vp_x="-465.85494 : -1008.8212 : 1"
   inkscape:vp_y="0 : 1405.8819 : 0"
   inkscape:vp_z="3428.9237 : -1008.8212 : 1"
   inkscape:persp3d-origin="1481.5343 : -1708.4931 : 1"
   id="perspective845" />















	

		
	<linearGradient
   inkscape:collect="always"
   xlink:href="#linearGradient922"
   id="linearGradient924"
   x1="112.85682"
   y1="712.51764"
   x2="108.36248"
   y2="-1071.7285"
   gradientUnits="userSpaceOnUse"
   gradientTransform="translate(10.219668)" /></defs><sodipodi:namedview
     pagecolor="#ffffff"
     bordercolor="#666666"
     borderopacity="1"
     objecttolerance="10"
     gridtolerance="10"
     guidetolerance="10"
     inkscape:pageopacity="0"
     inkscape:pageshadow="2"
     inkscape:window-width="2942"
     inkscape:window-height="1662"
     id="namedview4"
     showgrid="false"
     inkscape:zoom="0.22250293"
     inkscape:cx="818.69307"
     inkscape:cy="1102.2957"
     inkscape:window-x="370"
     inkscape:window-y="143"
     inkscape:window-maximized="0"
     inkscape:current-layer="layer1"
     fit-margin-top="100"
     fit-margin-left="100"
     fit-margin-right="100"
     fit-margin-bottom="100"
     showguides="false"><inkscape:grid
       type="xygrid"
       id="grid3748"
       spacingx="15.000001"
       spacingy="30"
       originx="1712.8717"
       originy="-127.34995" /></sodipodi:namedview><g
     inkscape:groupmode="layer"
     id="layer1"
     inkscape:label="title"
     style="display:inline"
     transform="translate(1163.311,1171.275)"><text
   transform="scale(0.94703571,1.0559264)"
   style="font-variant:normal;font-weight:normal;font-stretch:normal;font-size:32.08465195px;line-height:0%;font-family:Times;-inkscape-font-specification:Times-Roman;writing-mode:lr-tb;display:inline;fill:#ff8136;fill-opacity:1;fill-rule:nonzero;stroke:none;stroke-width:13.93372345;stroke-miterlimit:4;stroke-dasharray:none;stroke-opacity:1;"
   id="text24"
   x="-1141.6598"
   y="1250.2847"><tspan
     x="-1141.6598"
     sodipodi:role="line"
     id="tspan28"
     y="1250.2847"
     style="font-style:normal;font-variant:normal;font-weight:normal;font-stretch:normal;font-size:570.39379883px;line-height:1.25;font-family:Orbitron;-inkscape-font-specification:Orbitron;letter-spacing:22.74707985px;fill:#ff8136;fill-opacity:1;stroke:none;stroke-width:13.93372345;stroke-miterlimit:4;stroke-dasharray:none;stroke-opacity:1;">XENIUS</tspan></text>




















<flowRoot
   xml:space="preserve"
   id="flowRoot948"
   style="font-style:normal;font-weight:normal;font-size:40px;line-height:1.25;font-family:sans-serif;letter-spacing:-34.54000092px;word-spacing:0px;fill:#000000;fill-opacity:1;stroke:none"
   transform="matrix(2.0280096,0,0,2.0280096,-1854.7723,-690.78327)"><flowRegion
     id="flowRegion950"><rect
       id="rect952"
       width="1575.0001"
       height="1297.0547"
       x="-134.70581"
       y="-120.42929" /></flowRegion><flowPara
     id="flowPara954" /></flowRoot><path
   inkscape:connector-curvature="0"
   d="m 833.72812,93.167678 c -88.27668,0 -162.85883,59.524482 -185.86339,140.528802 H 461.3268 V 27.979881 H 651.789 c 206.86893,0 375.1662,-168.297291 375.1662,-375.166221 0,-165.86263 -110.00592,-311.56992 -266.17558,-359.02649 -47.20714,-189.02529 -217.83721,-324.59697 -415.45232,-324.59697 -76.60576,0 -149.9899,19.7549 -214.7526,57.49739 -68.588593,-62.72499 -158.523512,-97.96259 -253.01859,-97.96259 -202.6882,0 -368.35058,161.57646 -374.96246,362.6802 -160.41713,44.83923 -274.40707,191.71642 -274.40707,361.40846 0,206.86893 168.29729,375.166221 375.16622,375.166221 H -206.185 V 233.69648 h -186.53793 c -23.00105,-81.00432 -97.58671,-140.528802 -185.86339,-140.528802 -106.54542,0 -193.2271,86.681682 -193.2271,193.227102 0,106.54542 86.68168,193.2271 193.2271,193.2271 88.27668,0 162.85883,-59.52449 185.86339,-140.5288 h 239.23623 c 29.10351,0 52.6983,-23.59479 52.6983,-52.6983 V 27.979881 H 74.872598 V 346.45679 c -81.0043138,23.00105 -140.5288,97.58671 -140.5288,185.86339 0,106.54542 86.681677,193.2271 193.227102,193.2271 106.54542,0 193.2271,-86.68168 193.2271,-193.2271 0,-88.27668 -59.52449,-162.85883 -140.5288,-185.86339 V 27.979881 h 175.661 V 286.39478 c 0,29.10351 23.59479,52.6983 52.6983,52.6983 h 239.23623 c 23.00105,81.00431 97.58671,140.5288 185.86339,140.5288 106.54542,0 193.22708,-86.68168 193.22708,-193.2271 0,-106.54542 -86.68166,-193.227102 -193.22708,-193.227102 z M -578.58632,374.22528 c -48.42974,0 -87.8305,-39.40076 -87.8305,-87.8305 0,-48.42974 39.40076,-87.8305 87.8305,-87.8305 48.42974,0 87.8305,39.40076 87.8305,87.8305 0,48.42974 -39.40076,87.8305 -87.8305,87.8305 z m 793.98772,158.0949 c 0,48.42974 -39.40076,87.8305 -87.8305,87.8305 -48.42974,0 -87.830502,-39.40076 -87.830502,-87.8305 0,-48.42974 39.400762,-87.8305 87.830502,-87.8305 48.42974,0 87.8305,39.40076 87.8305,87.8305 z M -396.6472,-77.416719 c -148.74973,0 -269.76962,-121.016381 -269.76962,-269.769621 0,-132.95079 99.0974,-247.70309 230.50236,-266.92041 27.72985,-4.05425 47.43199,-29.10351 44.84626,-57.0055 -0.76237,-8.23148 -1.14883,-16.64213 -1.14883,-25.00008 0,-148.74622 121.01989,-269.76259 269.76963,-269.76259 79.363637,0 154.205762,34.49982 205.33014,94.65317 17.94904,21.11796 49.18508,24.72253 71.47646,8.25255 55.26998,-40.85172 121.30446,-62.44397 190.96459,-62.44397 160.3012,0 293.61033,117.61909 318.5296,270.62334 3.52376,21.63441 20.07454,38.8281 41.55788,43.17747 125.24278,25.35491 216.14384,136.55886 216.14384,264.42602 0,148.75324 -121.01989,269.769621 -269.76963,269.769621 z M 833.72812,374.22528 c -48.42974,0 -87.8305,-39.40076 -87.8305,-87.8305 0,-48.42974 39.40076,-87.8305 87.8305,-87.8305 48.42974,0 87.8305,39.40076 87.8305,87.8305 0,48.42974 -39.40076,87.8305 -87.8305,87.8305 z"
   id="path834"
   style="fill:url(#linearGradient924);fill-opacity:1;stroke-width:3.51322007" /></g></svg>